<svg class="Logo dwc-block dwc-w-auto" role="img" width="122" height="48" viewBox="0 0 133 48" xmlns="http://www.w3.org/2000/svg">
    <title>NoUnityCN logo</title>
    <path fill="#ccc" d="M42.5 33.6V11.2L23.1 0v8.6l7.6 4.4c.3.2.3.6 0 .7l-9 5.2c-.3.2-.6.1-.8 0l-9-5.2c-.3-.1-.3-.6 0-.7l7.6-4.4V0L0 11.2v22.4-.1.1l7.4-4.3v-8.8c0-.3.4-.5.6-.4l9 5.2c.3.2.4.4.4.7v10.4c0 .3-.4.5-.6.4l-7.6-4.4-7.4 4.3L21.2 48l19.4-11.2-7.4-4.3-7.6 4.4c-.3.2-.6 0-.6-.4V26.1c0-.3.2-.6.4-.7l9-5.2c.3-.2.6 0 .6.4v8.8l7.5 4.2z"></path>
    <path fill="#a6a6a6" d="m21.2 48 19.4-11.2-7.4-4.3-7.6 4.4c-.3.2-.6 0-.6-.4V26.1c0-.3.2-.6.4-.7l9-5.2c.3-.2.6 0 .6.4v8.8l7.4 4.3V11.2L21.2 23.5V48z"></path>
    <path fill="#fff" d="M23.1 0v8.6l7.6 4.4c.3.2.3.6 0 .7l-9 5.2c-.3.2-.6.1-.8 0l-9-5.2c-.3-.1-.3-.6 0-.7l7.6-4.4V0L0 11.2l21.2 12.3 21.2-12.3L23.1 0z"></path>
    <path fill="#ccc" d="m16.9 36.9-7.6-4.4-7.4 4.3L21.3 48V23.5L0 11.2v22.4-.1.1l7.4-4.3v-8.8c0-.3.4-.5.6-.4l9 5.2c.3.2.4.4.4.7v10.4c.1.4-.2.7-.5.5z"></path>
    <text x="50" y="30" fill="#fff" font-family="Arial, sans-serif" font-size="16" font-weight="bold">NoUnityCN</text>
</svg>
